<svg xmlns="http://www.w3.org/2000/svg" preserveAspectRatio="none" viewBox="0 -9 6.5 29" width="80"
     height="300">
    <!-- 音符尾 -->
    <path d="
    M5.8,3.9c0.3-0.8,0.4-1.7,0.4-2.6C6.1-0.3,5.6-1.7,4.5-3c-0.8-1-1.8-2-3-3C1-6.5,0.7-7,0.5-7.5L-0.2-9h-0.5v19.4H0V9.9
	c0,0,2.6,1,3.3,1.9c0.5,0.5,0.9,1.1,1.1,1.8c0.8,1.8,0.3,3.8-0.2,5.3c-0.1,0.3,0.1,0.2,0.1,0.1c0.8-1.1,1.4-2.6,1.3-4.5l0,0
	c-0.2-2.1-1.8-3.9-1.8-3.9S1.5,8,1.1,7.2C0.9,6.9,0,5,0,4.7h0.4c1.5,0.8,2.8,1.8,3.8,2.9c2.3,2.1,1.1,5.7,1.1,5.7l0.1,0.3
	c1-1.6,0.7-4.4,0.5-5C6.1,7.8,6.2,6.9,6.2,6C6.2,5.3,6,4.6,5.8,3.9z M5.5,8c-0.2-0.6-0.6-1.1-1-1.6c-0.8-0.9-1.8-1.9-3-3
	c-0.5-0.5-0.8-1-1-1.5L0,0.1C1.4,0.9,3.1,1.8,4.1,3c0.8,1,1.3,2,1.4,3.4V8z M5.5,3.3l-1-1.6c-0.8-1-1.8-2-3-3c-0.5-0.5-0.8-1-1-1.5
	L0-4.6c1.5,0.8,3.1,1.7,4.2,2.9c0.8,0.9,1.3,2,1.4,3.2V3.3z
  " fill="black"/>
</svg>
