<svg xmlns="http://www.w3.org/2000/svg" preserveAspectRatio="none" viewBox="0 -4.5 6.2 23.5" width="8"
     height="30">
    <!-- 音符尾 -->
    <path d="
    M5.4,12.8c0-0.1,0.1-0.2,0.1-0.3c0.2-0.7,0.3-1.4,0.3-2C5.7,9.7,5.6,9,5.4,8.4c0.3-0.8,0.4-1.7,0.4-2.6
c-0.1-1.6-0.6-3-1.7-4.3c-0.8-1-1.8-2-3-3C0.6-2,0.3-2.5,0.1-3l-0.2-1.5h-0.6v14.7h0.5V9.7l2.5,1.6C3.3,11.8,4,12.4,4.6,13c0,0,0,0,0,0.1C5.3,14,5.5,16,5.5,16c0,0.6,0,1.1-0.2,1.8l0,0.2c0,0.3-0.1,0.4-0.1,0.6c0,0.1,0.1,0.1,0.1,0.1C5.6,17.9,6,17,6,15.7
	C6,15,5.8,13.6,5.4,12.8z M-0.1-0.1c1.5,0.8,2.8,1.7,3.8,2.9c0.8,0.9,1.3,2,1.4,3.4v1.6c-0.2-0.6-0.6-1.1-1-1.6
	c-0.8-0.9-1.8-1.9-3-3c-0.5-0.5-0.8-1-1-1.5l-0.2-1.5V-0.1z M5.1,12.2l-0.6-0.8l-0.2-0.2l-0.8-0.9L2.1,9c-0.5-0.5-1-1.1-1.4-2
	C0.2,6.2,0,5.4-0.1,4.5c1.5,0.8,2.8,1.8,3.8,2.9c0.8,1,1.3,2.1,1.5,3.3l-0.1,1.1L5.1,12.2z
  " fill="black"/>
</svg>
