<svg xmlns="http://www.w3.org/2000/svg" preserveAspectRatio="none" viewBox="-0.7 -13 13 31" width="50"
     height="140">
    <path stroke="red" fill="red"
          d="M7.3-8.5C6.7-8.5,6.2-8.7,5.7-9C5.3-9.4,5-9.9,5-10.4c0-1,0.5-1.6,1.5-1.8c0.5-0.1,1,0.1,1.3,0.4c0.4,0.3,0.6,0.7,0.6,1.3L8.3-10L8.2-9.7c0.1,0.3,0.3,0.3,0.6,0.2c1-0.4,1.7-1.1,2.2-2h0.4L3.5,16.8H2.6l2.3-8.2C4.1,9.1,3.2,9.4,2.3,9.5c-0.6,0-1.1-0.2-1.6-0.6S0,8.1,0,7.6c0.1-1.1,0.7-1.7,1.8-1.9c1,0.1,1.5,0.7,1.6,1.7L3.2,8.3c0.1,0.1,0.2,0.2,0.3,0.1c0.3,0,0.6-0.1,0.9-0.4l0.8-0.7l1.3-4.7C5.7,3.2,4.8,3.5,3.9,3.5C3.3,3.5,2.8,3.3,2.3,3C1.9,2.6,1.6,2.2,1.6,1.6c0-1.1,0.6-1.7,1.8-1.9c0.5,0,0.9,0.2,1.2,0.6S5,1.1,5,1.6L4.8,2.3C4.9,2.5,5,2.5,5.1,2.5c0.3,0,0.6-0.1,1-0.4l0.8-0.8l1.3-4.7C7.4-2.8,6.5-2.5,5.6-2.5C5-2.5,4.4-2.7,4-3C3.5-3.4,3.3-3.9,3.3-4.4c0-1,0.5-1.6,1.5-1.8c0.5-0.1,0.9,0.1,1.3,0.4C6.5-5.5,6.7-5,6.7-4.5L6.6-4L6.5-3.7c0.1,0.3,0.3,0.3,0.6,0.2c0.5-0.2,1-0.5,1.5-1.1l1.3-4.7C9.1-8.8,8.2-8.5,7.3-8.5"></path>
</svg>
