<svg xmlns="http://www.w3.org/2000/svg" preserveAspectRatio="none" viewBox="-0.7 -9.5 7.5 20" width="80"
     height="200">
    <path stroke="red" fill="red"
          d="M6.2-4.3C4.7-2.6,3.9-1.2,3.8,0.2c0,0.8,0.3,1.6,0.8,2.4l1.6,2.1L5.8,5.1C5.2,4.8,4.6,4.6,4.1,4.6c-0.5,0-0.9,0.2-1.3,0.7C2.4,6.1,2.3,6.8,2.6,7.4c0.3,0.6,0.6,1.1,1,1.4L3.3,9.3L1.2,7.4C0.5,6.7,0.1,5.9,0,4.9c0.1-1.4,0.9-2.1,2.3-2.1c0.5,0,1.2,0.2,1.9,0.6V3.4L0.4-1.5c0.7-0.6,1.3-1.3,1.8-2.1s0.7-1.7,0.6-2.6C2.5-7.3,2-8.1,1.4-8.9h1L6.2-4.3"></path>
</svg>
