<?xml version="1.0" encoding="iso-8859-1"?>
<!-- Generator: Adobe Illustrator 19.0.0, SVG Export Plug-In . SVG Version: 6.00 Build 0)  -->
<svg version="1.1" id="Capa_1" xmlns="http://www.w3.org/2000/svg" x="0px"
     y="0px"
     viewBox="0 0 110 108" style="enable-background:new 0 0 270 270;" xml:space="preserve">
<g id="XMLID_520_">
<path id="Vector"
      d="M102.654 23.3828C106.677 23.3828 109.838 20.5407 109.838 16.9234C109.838 13.3062 106.677 10.4641 102.654 10.4641C98.6315 10.4641 95.4707 13.3062 95.4707 16.9234C95.4707 20.5407 98.4878 23.3828 102.654 23.3828ZM102.654 42.7608C98.6315 42.7608 95.4707 45.6029 95.4707 49.2201C95.4707 52.8373 98.6315 55.6794 102.654 55.6794C106.677 55.6794 109.838 52.8373 109.838 49.2201C109.838 45.6029 106.677 42.7608 102.654 42.7608ZM40.2996 0C21.7656 0 4.9557 11.756 4.9557 27.1292C4.9557 37.2057 10.8854 44.9704 20.0415 45.732C40.8212 47.4606 46.2348 21.2964 24.0644 20.0239C18.1738 20.0239 13.5762 24.1579 14.0072 24.1579C13.2888 24.1579 13.0015 23.512 13.0015 22.0909C13.0015 12.9187 25.7885 4.13397 37.5698 4.13397C54.0924 4.13397 64.5806 16.5359 64.5806 33.0718C64.5806 53.6124 51.2189 76.4785 29.9551 93.6603C25.7782 97.0308 17.2127 101.693 8.71847 105.08C7.61003 105.522 7.94765 107.002 9.11336 106.747C39.4552 100.11 83.2583 69.2189 83.2583 38.3684C83.1147 21.0574 74.3505 -2.37683e-07 40.2996 0Z"
      fill="black"/>
</g>
</svg>
