<svg version="1.1" id="Capa_1" xmlns="http://www.w3.org/2000/svg"
     preserveAspectRatio="none"
     width="225" height="310"
     viewBox="38 20 22.5 31">
    <path
            d="M39.6836 39.941C44.1108 34.3597 56.6663 39.6271 39.6836 50.2217M39.6836 39.941C41.2414 38.4368 45.5825 35.9737 46.9165 40.0869C48.1652 43.937 43.0033 48.4515 39.6836 50.2217M39.6836 39.941C43.5534 36.8878 46.0949 37.9243 46.7436 39.6271C48.2747 43.6464 42.7809 48.2894 39.6836 50.2217M39.6836 50.2217V20.7969"
            stroke="red" fill="transparent" stroke-width="1.52124"/>
    <g transform="translate(11,0)">
        <path
                d="M39.6836 39.941C44.1108 34.3597 56.6663 39.6271 39.6836 50.2217M39.6836 39.941C41.2414 38.4368 45.5825 35.9737 46.9165 40.0869C48.1652 43.937 43.0033 48.4515 39.6836 50.2217M39.6836 39.941C43.5534 36.8878 46.0949 37.9243 46.7436 39.6271C48.2747 43.6464 42.7809 48.2894 39.6836 50.2217M39.6836 50.2217V20.7969"
                stroke="red" fill="transparent" stroke-width="1.52124"/>

    </g>

</svg>
