<svg xmlns="http://www.w3.org/2000/svg" preserveAspectRatio="none" viewBox="-0.7 -4.5 6.7 23.5" width="7.4"
     height="28">
    <path stroke="black" d="M7.6-3H0v-3h7.6V-3"></path>
    <path stroke="black" d="M7.6,0H0v-3h7.6V0"></path>
    <path stroke="black"
          d="M6.2-4.3C4.7-2.6,3.9-1.2,3.8,0.2c0,0.8,0.3,1.6,0.8,2.4l1.6,2.1L5.8,5.1C5.2,4.8,4.6,4.6,4.1,4.6c-0.5,0-0.9,0.2-1.3,0.7C2.4,6.1,2.3,6.8,2.6,7.4c0.3,0.6,0.6,1.1,1,1.4L3.3,9.3L1.2,7.4C0.5,6.7,0.1,5.9,0,4.9c0.1-1.4,0.9-2.1,2.3-2.1c0.5,0,1.2,0.2,1.9,0.6V3.4L0.4-1.5c0.7-0.6,1.3-1.3,1.8-2.1s0.7-1.7,0.6-2.6C2.5-7.3,2-8.1,1.4-8.9h1L6.2-4.3"></path>
    <path stroke="black"
          d="M3.3-4.1L3.2-3.8c0.1,0.3,0.3,0.3,0.6,0.2c1-0.4,1.7-1.1,2.1-2h0.4L3.5,4.7H2.6L5-3.4C4.1-2.9,3.3-2.6,2.3-2.5c-0.6,0-1.1-0.2-1.6-0.6C0.4-3.5,0.1-3.9,0.1-4.5c0-1,0.5-1.6,1.5-1.8c0.5-0.1,0.9,0,1.3,0.4c0.4,0.3,0.5,0.7,0.6,1.3L3.3-4.1"></path>
    <path stroke="black"
          d="M2.3-1C1.9-1.4,1.6-1.9,1.6-2.5c0-1,0.5-1.6,1.5-1.8C3.6-4.4,4-4.2,4.3-3.9c0.4,0.3,0.6,0.7,0.6,1.3L4.8-2L4.7-1.7c0.1,0.2,0.3,0.3,0.6,0.1C6.3-2,7-2.7,7.5-3.6H8L3.4,12.7H2.6l2.3-8.2C4.1,5.1,3.2,5.4,2.3,5.4c-0.6,0-1.1-0.2-1.6-0.6C0.3,4.5,0,4,0,3.5c0.1-1.1,0.7-1.7,1.8-1.9c0.5,0,0.9,0.2,1.2,0.6c0.3,0.4,0.4,0.8,0.4,1.3L3.2,4.2c0.1,0.1,0.2,0.2,0.3,0.2c0.3,0,0.6-0.1,0.9-0.4l0.8-0.6l1.3-4.7C5.6-0.9,4.8-0.6,3.8-0.5C3.3-0.5,2.8-0.7,2.3-1"></path>
    <path stroke="black"
          d="M6.5-10L6.4-9.7c0.1,0.3,0.3,0.3,0.6,0.2c0.9-0.4,1.7-1.1,2.2-2h0.4L3.5,10.8H2.6l2.3-8.2C4.1,3.1,3.2,3.4,2.3,3.5c-0.6,0-1.1-0.2-1.6-0.6C0.3,2.6,0,2.1,0,1.5c0.1-1.1,0.7-1.7,1.8-1.9c1,0.1,1.5,0.7,1.6,1.7L3.2,2.3c0.1,0.1,0.2,0.2,0.3,0.1c0.3,0,0.6-0.1,1-0.4l0.8-0.7l1.2-4.7C5.7-2.8,4.8-2.5,3.9-2.5C3.3-2.5,2.8-2.7,2.3-3C1.9-3.4,1.6-3.8,1.6-4.4c0-1.1,0.6-1.7,1.8-1.9c0.5,0,0.9,0.2,1.2,0.6C4.8-5.3,5-4.9,4.9-4.4L4.8-3.7c0.1,0.1,0.2,0.2,0.3,0.2c0.3,0,0.6-0.1,1-0.4l0.8-0.8l1.3-4.7C7.3-8.8,6.5-8.5,5.6-8.5C5-8.5,4.4-8.7,4-9c-0.4-0.4-0.7-0.8-0.7-1.4c0-1,0.5-1.6,1.5-1.8c0.5-0.1,0.9,0.1,1.3,0.4c0.4,0.3,0.6,0.7,0.6,1.3C6.7-10.4,6.6-10.2,6.5-10"></path>
    <path stroke="black"
          d="M7.3-8.5C6.7-8.5,6.2-8.7,5.7-9C5.3-9.4,5-9.9,5-10.4c0-1,0.5-1.6,1.5-1.8c0.5-0.1,1,0.1,1.3,0.4c0.4,0.3,0.6,0.7,0.6,1.3L8.3-10L8.2-9.7c0.1,0.3,0.3,0.3,0.6,0.2c1-0.4,1.7-1.1,2.2-2h0.4L3.5,16.8H2.6l2.3-8.2C4.1,9.1,3.2,9.4,2.3,9.5c-0.6,0-1.1-0.2-1.6-0.6S0,8.1,0,7.6c0.1-1.1,0.7-1.7,1.8-1.9c1,0.1,1.5,0.7,1.6,1.7L3.2,8.3c0.1,0.1,0.2,0.2,0.3,0.1c0.3,0,0.6-0.1,0.9-0.4l0.8-0.7l1.3-4.7C5.7,3.2,4.8,3.5,3.9,3.5C3.3,3.5,2.8,3.3,2.3,3C1.9,2.6,1.6,2.2,1.6,1.6c0-1.1,0.6-1.7,1.8-1.9c0.5,0,0.9,0.2,1.2,0.6S5,1.1,5,1.6L4.8,2.3C4.9,2.5,5,2.5,5.1,2.5c0.3,0,0.6-0.1,1-0.4l0.8-0.8l1.3-4.7C7.4-2.8,6.5-2.5,5.6-2.5C5-2.5,4.4-2.7,4-3C3.5-3.4,3.3-3.9,3.3-4.4c0-1,0.5-1.6,1.5-1.8c0.5-0.1,0.9,0.1,1.3,0.4C6.5-5.5,6.7-5,6.7-4.5L6.6-4L6.5-3.7c0.1,0.3,0.3,0.3,0.6,0.2c0.5-0.2,1-0.5,1.5-1.1l1.3-4.7C9.1-8.8,8.2-8.5,7.3-8.5"></path>
    <path stroke="black"
          d="M12.9-17.6L3.5,16.8H2.6l2.2-8.2C4.1,9.1,3.2,9.4,2.3,9.5c-0.6,0-1.1-0.2-1.6-0.6S0,8.1,0,7.5c0.1-1.1,0.7-1.7,1.8-1.9c1,0.1,1.5,0.7,1.6,1.7L3.2,8.3c0.1,0.1,0.2,0.2,0.3,0.2c0.3,0,0.6-0.1,0.9-0.4l0.8-0.7l1.2-4.7C5.6,3.1,4.8,3.4,3.9,3.5c-0.6,0-1.1-0.2-1.6-0.6C1.9,2.6,1.6,2.1,1.6,1.6c0-1.1,0.6-1.7,1.8-1.8c0.5,0,0.9,0.2,1.2,0.6C4.8,0.7,5,1.1,4.9,1.5L4.8,2.3c0.1,0.1,0.2,0.2,0.3,0.1c0.3,0,0.6-0.1,0.9-0.4l0.8-0.8l1.4-4.6C7.3-2.8,6.5-2.5,5.6-2.5C5-2.5,4.4-2.7,4-3C3.5-3.4,3.3-3.9,3.3-4.4c0-1,0.5-1.6,1.5-1.8c0.5-0.1,0.9,0.1,1.3,0.4c0.4,0.3,0.6,0.8,0.6,1.3L6.5-4L6.4-3.7c0.1,0.3,0.3,0.3,0.6,0.2c0.5-0.2,1-0.5,1.5-1.1l1.3-4.7C9-8.8,8.2-8.5,7.2-8.5C6.6-8.5,6.1-8.7,5.7-9C5.2-9.4,5-9.9,5-10.4c0-1,0.5-1.6,1.5-1.8c0.5-0.1,1,0.1,1.3,0.4c0.4,0.3,0.5,0.8,0.6,1.3L8.2-10L8.1-9.7c0.1,0.3,0.3,0.3,0.6,0.2c0.6-0.2,1.1-0.6,1.5-1.1l1.2-4.7c-0.8,0.5-1.7,0.8-2.6,0.9c-0.6,0-1.1-0.2-1.6-0.6c-0.5-0.4-0.7-0.8-0.7-1.4c0-1,0.5-1.6,1.5-1.8c0.5-0.1,1,0.1,1.3,0.4c0.4,0.3,0.5,0.7,0.6,1.3L9.8-16l-0.1,0.3c0.1,0.3,0.3,0.3,0.6,0.2c0.9-0.4,1.6-1.1,2.1-2H12.9"></path>
    <path stroke="black"
          d="M14.4-17.7L5,16.7l0,0l-1.6,5.7H2.5l1.6-5.7l0,0l0.7-2.5C4,14.7,3.2,15,2.3,15.1c-0.6,0-1.1-0.2-1.6-0.6C0.3,14.2,0,13.7,0,13.1c0-1,0.5-1.6,1.5-1.8c0.5-0.1,0.9,0,1.3,0.4C3.1,12,3.3,12.4,3.3,13l-0.1,0.6l-0.1,0.3c0.1,0.3,0.3,0.3,0.6,0.2l1.4-1l1.2-4.5C5.5,9.1,4.7,9.4,3.7,9.5c-0.6,0-1.1-0.2-1.6-0.6C1.8,8.5,1.6,8,1.5,7.4c0.1-1.1,0.7-1.7,1.8-1.9c1,0.1,1.5,0.7,1.6,1.7L4.7,8.1C4.8,8.2,4.9,8.3,5,8.2c0.3,0,0.6-0.1,0.9-0.4l0.8-0.7l1.2-4.7C7.2,3,6.3,3.3,5.4,3.4c-0.6,0-1.1-0.2-1.6-0.6C3.4,2.5,3.2,2,3.2,1.5c0-1.1,0.6-1.7,1.8-1.8c0.5,0,0.9,0.2,1.2,0.6C6.4,0.6,6.5,1,6.5,1.4L6.3,2.2c0.1,0.1,0.2,0.2,0.3,0.2c0.3,0,0.6-0.1,0.9-0.4l0.8-0.8l1.4-4.6C8.9-2.9,8-2.6,7.1-2.6C6.5-2.6,6-2.8,5.5-3.1C5.1-3.5,4.8-4,4.8-4.5c0-1,0.5-1.6,1.5-1.8c0.5-0.1,0.9,0,1.3,0.3C8-5.6,8.2-5.2,8.2-4.7L8.1-4.1L8-3.8c0.1,0.3,0.3,0.3,0.6,0.2c0.5-0.2,1-0.5,1.5-1.1l1.3-4.7c-0.8,0.5-1.7,0.8-2.6,0.9c-0.6,0-1.1-0.2-1.6-0.6C6.8-9.5,6.5-10,6.5-10.5c0-1,0.5-1.6,1.5-1.8c0.5-0.1,1,0.1,1.3,0.4c0.4,0.3,0.5,0.8,0.6,1.3l-0.1,0.5L9.7-9.8c0.1,0.3,0.3,0.3,0.6,0.2c0.6-0.2,1.1-0.6,1.5-1.1l1.2-4.7c-0.8,0.5-1.7,0.8-2.6,0.9c-0.6,0-1.1-0.2-1.6-0.6c-0.5-0.4-0.7-0.8-0.7-1.4c0-1,0.5-1.6,1.5-1.8c0.5-0.1,1,0.1,1.3,0.4c0.4,0.3,0.5,0.7,0.6,1.3L11.4-16l-0.1,0.3c0.1,0.3,0.3,0.3,0.6,0.2c0.9-0.4,1.6-1.1,2.1-2h0.4"></path>
</svg>
