<svg xmlns="http://www.w3.org/2000/svg" preserveAspectRatio="none" viewBox="-0.7 -13 11 25" width="100"
     height="240">
    <path stroke="black"
          d="M6.5-10L6.4-9.7c0.1,0.3,0.3,0.3,0.6,0.2c0.9-0.4,1.7-1.1,2.2-2h0.4L3.5,10.8H2.6l2.3-8.2C4.1,3.1,3.2,3.4,2.3,3.5c-0.6,0-1.1-0.2-1.6-0.6C0.3,2.6,0,2.1,0,1.5c0.1-1.1,0.7-1.7,1.8-1.9c1,0.1,1.5,0.7,1.6,1.7L3.2,2.3c0.1,0.1,0.2,0.2,0.3,0.1c0.3,0,0.6-0.1,1-0.4l0.8-0.7l1.2-4.7C5.7-2.8,4.8-2.5,3.9-2.5C3.3-2.5,2.8-2.7,2.3-3C1.9-3.4,1.6-3.8,1.6-4.4c0-1.1,0.6-1.7,1.8-1.9c0.5,0,0.9,0.2,1.2,0.6C4.8-5.3,5-4.9,4.9-4.4L4.8-3.7c0.1,0.1,0.2,0.2,0.3,0.2c0.3,0,0.6-0.1,1-0.4l0.8-0.8l1.3-4.7C7.3-8.8,6.5-8.5,5.6-8.5C5-8.5,4.4-8.7,4-9c-0.4-0.4-0.7-0.8-0.7-1.4c0-1,0.5-1.6,1.5-1.8c0.5-0.1,0.9,0.1,1.3,0.4c0.4,0.3,0.6,0.7,0.6,1.3C6.7-10.4,6.6-10.2,6.5-10"></path>
</svg>
