<svg width="100%" height="100%" viewBox="0 0 36 36" fill="none" xmlns="http://www.w3.org/2000/svg">
<g id="Frame 82184">
<g id="Group 82078">
<path id="Vector" d="M24.5 13.7227V19.5004" stroke="currentColor" stroke-width="1.5" stroke-linecap="round" stroke-linejoin="round"/>
<path id="Vector_2" d="M11.5 19.5V25.2778" stroke="currentColor" stroke-width="1.5" stroke-linecap="round" stroke-linejoin="round"/>
<path id="Vector_3" d="M24.5 19.5C24.5 15.9102 21.5898 13 18 13C16.1636 13 14.505 13.7616 13.3229 14.9861M11.5 19.5C11.5 23.0898 14.4102 26 18 26C19.7534 26 21.3447 25.3057 22.5139 24.1771" stroke="currentColor" stroke-width="1.5" stroke-linecap="round" stroke-linejoin="round"/>
<path id="Vector_4" d="M6 31C3.79086 31 2 29.2091 2 27V12.6914C2 10.4822 3.79086 8.69136 6 8.69136H10.1346C10.5 8.69136 10.8364 8.49202 11.0118 8.17144L11.6093 7.07966C12.3111 5.79737 13.6564 5 15.1182 5H20.8818C22.3436 5 23.6889 5.79737 24.3907 7.07966L24.9882 8.17144C25.1636 8.49202 25.5 8.69136 25.8654 8.69136H30C32.2091 8.69136 34 10.4822 34 12.6914V27C34 29.2091 32.2091 31 30 31H6Z" stroke="currentColor" stroke-width="1.5" stroke-linecap="round" stroke-linejoin="round"/>
</g>
</g>
</svg>
