<svg width="100%" height="100%" viewBox="0 0 22 22" fill="none" xmlns="http://www.w3.org/2000/svg">
<g id="Frame 82085">
<path id="Star 1" d="M9.83577 2.87522C10.3168 1.99318 11.5833 1.99318 12.0644 2.87522L14.3211 7.01315C14.3819 7.12473 14.4897 7.20304 14.6146 7.22643L19.2474 8.09399C20.2349 8.27892 20.6263 9.48344 19.936 10.2135L16.698 13.6384C16.6107 13.7308 16.5695 13.8575 16.5859 13.9835L17.1924 18.6576C17.3217 19.654 16.297 20.3984 15.3894 19.9676L11.1315 17.9464C11.0167 17.8919 10.8835 17.8919 10.7686 17.9464L6.51072 19.9676C5.6031 20.3984 4.57847 19.654 4.70776 18.6576L5.31426 13.9835C5.33062 13.8575 5.28945 13.7308 5.20213 13.6384L1.96409 10.2135C1.27387 9.48344 1.66524 8.27892 2.65276 8.09399L7.28552 7.22643C7.41044 7.20304 7.51823 7.12473 7.57908 7.01315L9.83577 2.87522Z" stroke="currentColor" stroke-width="1.5"/>
<path id="Vector 209" d="M8.88477 13.1152C10.154 13.9614 11.8463 13.9614 13.1155 13.1152" stroke="currentColor" stroke-width="1.5" stroke-linecap="round"/>
</g>
</svg>
