<svg width="100%" height="100%" viewBox="0 0 36 36" fill="none" xmlns="http://www.w3.org/2000/svg">
<g id="Group 82596">
<g id="Group 82595">
<path id="Vector (Stroke)" d="M30.8999 11.2798C30.8998 9.45734 29.4226 7.97998 27.6001 7.97998H8.3999C6.57752 7.98009 5.1002 9.4574 5.1001 11.2798V24.7202C5.10023 26.5426 6.57753 28.0199 8.3999 28.02H27.6001C29.4226 28.02 30.8998 26.5426 30.8999 24.7202V11.2798ZM33.8999 24.7202C33.8998 28.1995 31.0794 31.02 27.6001 31.02H8.3999C4.92068 31.0199 2.10023 28.1994 2.1001 24.7202V11.2798C2.1002 7.80055 4.92067 4.98009 8.3999 4.97998H27.6001C31.0794 4.97998 33.8998 7.80048 33.8999 11.2798V24.7202Z" fill="currentColor"/>
<path id="Vector (Stroke)_2" d="M28.4965 7.68731C29.1021 7.12215 30.0514 7.15496 30.6166 7.76055C31.1818 8.36618 31.149 9.31545 30.5434 9.88067L22.2982 17.576C19.8778 19.8348 16.122 19.8348 13.7016 17.576L5.45645 9.88067L5.35001 9.77032C4.84927 9.19809 4.85328 8.32841 5.38321 7.76055C5.9132 7.1927 6.78076 7.12854 7.38614 7.58868L7.50333 7.68731L15.7484 15.3826C17.0163 16.5659 18.9835 16.5659 20.2514 15.3826L28.4965 7.68731Z" fill="currentColor"/>
</g>
</g>
</svg>
