<svg width="100%" height="100%" viewBox="0 0 20 20" fill="none" xmlns="http://www.w3.org/2000/svg">
<g id="Frame" clip-path="url(#clip0_1_5775)">
<g id="Group 82147">
<path id="Vector" d="M16.8442 6.10889C16.8442 4.45203 15.5011 3.10889 13.8442 3.10889H6.18115C4.5243 3.10889 3.18115 4.45203 3.18115 6.10889V13.772C3.18115 15.4288 4.5243 16.772 6.18115 16.772H13.8442C15.5011 16.772 16.8442 15.4288 16.8442 13.772V6.10889Z" stroke="currentColor" stroke-width="1.3"/>
<path id="Vector_2" d="M10.6499 13.35C10.6499 13.709 10.3589 14 9.9999 14C9.64092 14 9.3499 13.709 9.3499 13.35V12.65C9.3499 12.291 9.64092 12 9.9999 12C10.3589 12 10.6499 12.291 10.6499 12.65V13.35ZM10.6499 10.5188C10.6499 10.8777 10.3589 11.1688 9.9999 11.1688C9.64092 11.1688 9.3499 10.8777 9.3499 10.5188V6.65C9.3499 6.29102 9.64092 6 9.9999 6C10.3589 6 10.6499 6.29101 10.6499 6.65V10.5188Z" fill="currentColor"/>
</g>
</g>
<defs>
<clipPath id="clip0_1_5775">
<rect width="100%" height="100%" fill="currentColor" transform="matrix(-1 0 0 -1 20 20)"/>
</clipPath>
</defs>
</svg>
