<svg width="100%" height="100%" viewBox="0 0 20 20" fill="none" xmlns="http://www.w3.org/2000/svg">
<g id="Frame 82313">
<g id="Group 515">
<path id="Vector" d="M7.81535 17.3643C6.53459 16.9821 5.39455 16.2725 4.49184 15.3323C4.8286 14.9323 5.03154 14.4154 5.03154 13.851C5.03154 12.5816 4.00487 11.5526 2.73839 11.5526C2.66178 11.5526 2.58605 11.5563 2.51137 11.5637C2.40963 11.0651 2.3562 10.5489 2.3562 10.0203C2.3562 9.2194 2.4788 8.44724 2.70621 7.72158C2.71692 7.72174 2.72765 7.72181 2.73839 7.72181C4.00487 7.72181 5.03154 6.69276 5.03154 5.42337C5.03154 5.05895 4.94693 4.71433 4.79634 4.40822C5.68031 3.58437 6.75924 2.96782 7.95611 2.63574C8.33536 3.38084 9.10827 3.89107 10 3.89107C10.8918 3.89107 11.6647 3.38084 12.044 2.63574C13.2408 2.96782 14.3198 3.58437 15.2037 4.40822C15.0531 4.71433 14.9685 5.05895 14.9685 5.42337C14.9685 6.69276 15.9952 7.72181 17.2617 7.72181C17.2724 7.72181 17.2832 7.72174 17.2939 7.72158C17.5213 8.44724 17.6439 9.2194 17.6439 10.0203C17.6439 10.5489 17.5904 11.0651 17.4887 11.5637C17.414 11.5563 17.3383 11.5526 17.2617 11.5526C15.9952 11.5526 14.9685 12.5816 14.9685 13.851C14.9685 14.4154 15.1715 14.9323 15.5082 15.3323C14.6055 16.2725 13.4655 16.9821 12.1847 17.3643C11.8891 16.4374 11.0228 15.7664 10 15.7664C8.97729 15.7664 8.11094 16.4374 7.81535 17.3643Z" stroke="currentColor" stroke-width="1.3" stroke-linejoin="round"/>
<path id="Vector_2" d="M10.0003 12.7019C11.4778 12.7019 12.6756 11.5014 12.6756 10.0204C12.6756 8.53942 11.4778 7.33887 10.0003 7.33887C8.52274 7.33887 7.32495 8.53942 7.32495 10.0204C7.32495 11.5014 8.52274 12.7019 10.0003 12.7019Z" stroke="currentColor" stroke-width="1.3" stroke-linejoin="round"/>
</g>
</g>
</svg>
