<svg width="100%" height="100%" viewBox="0 0 23 22" fill="none" xmlns="http://www.w3.org/2000/svg">
<g id="Frame 22406" clip-path="url(#clip0_1_5596)">
<g id="Group 82114">
<path id="Vector 8" d="M8.33179 15.4258L14.668 15.4258" stroke="currentColor" stroke-width="1.5" stroke-linecap="round" stroke-linejoin="round"/>
<path id="Line 1" d="M8.75351 12.047L9.33052 10.8405M14.5376 12.047L13.9606 10.8405M9.33052 10.8405L9.54226 10.3978L11.3764 6.56274C11.4846 6.33659 11.8065 6.33659 11.9147 6.56274L13.7488 10.3978L13.9606 10.8405M9.33052 10.8405L13.9606 10.8405" stroke="currentColor" stroke-width="1.5" stroke-linecap="round" stroke-linejoin="round"/>
</g>
<path id="Rectangle 926" d="M15.5 1.90527H16.5526C18.785 1.90527 20.5947 3.71499 20.5947 5.94738V16.0526C20.5947 18.285 18.785 20.0947 16.5526 20.0947H6.44738C4.21499 20.0947 2.40527 18.285 2.40527 16.0526V5.94738C2.40527 3.71499 4.21498 1.90527 6.44738 1.90527H6.95264H9.22633H11.5H12.5" stroke="currentColor" stroke-width="1.5" stroke-linecap="round"/>
</g>
<defs>
<clipPath id="clip0_1_5596">
<rect width="100%" height="100%" fill="currentColor" transform="translate(0.5)"/>
</clipPath>
</defs>
</svg>
