<svg width="100%" height="100%" viewBox="0 0 24 24" fill="none" xmlns="http://www.w3.org/2000/svg">
<g id="Frame 82361">
<g id="Group 82042">
<g id="Group 82040">
<path id="Vector" d="M2.4707 6.1792C2.4707 4.2462 4.03771 2.6792 5.9707 2.6792H18.0288C19.9618 2.6792 21.5288 4.2462 21.5288 6.1792V14.4416C21.5288 16.3746 19.9618 17.9416 18.0288 17.9416H14.7168C14.5142 17.9416 14.3317 18.0639 14.2545 18.2512L13.3867 20.3583C12.8767 21.5967 11.1228 21.5967 10.6128 20.3583L9.745 18.2512C9.66784 18.0639 9.48527 17.9416 9.28267 17.9416H5.9707C4.03771 17.9416 2.4707 16.3746 2.4707 14.4416V6.1792Z" stroke="currentColor" stroke-width="1.5" stroke-linecap="round" stroke-linejoin="round"/>
<g id="Group 82041">
<path id="Vector_2" d="M12.085 12.4526C12.085 10.4639 14.17 11.062 14.17 8.97758C14.17 7.82607 13.2365 6.89258 12.085 6.89258C10.9335 6.89258 10 7.82607 10 8.97758" stroke="currentColor" stroke-width="1.5" stroke-linecap="round" stroke-linejoin="round"/>
<path id="Vector_3" fill-rule="evenodd" clip-rule="evenodd" d="M12 15.3428C12.4142 15.3428 12.75 15.007 12.75 14.5928C12.75 14.1786 12.4142 13.8428 12 13.8428C11.5858 13.8428 11.25 14.1786 11.25 14.5928C11.25 15.007 11.5858 15.3428 12 15.3428Z" fill="currentColor"/>
</g>
</g>
</g>
</g>
</svg>
