<svg width="100%" height="100%" viewBox="0 0 16 17" fill="none" xmlns="http://www.w3.org/2000/svg">
<g id="Group 82132">
<g id="Group 81978">
<g id="Group 81970">
<g id="Group 81745">
<path id="Rectangle 943" d="M1.77832 3.42059C1.77832 2.08374 2.86206 1 4.19891 1H8.00054H9.5561L14.2228 4.5V8V12.5794C14.2228 13.9163 13.139 15 11.8022 15H4.19891C2.86205 15 1.77832 13.9163 1.77832 12.5794V3.42059Z" fill="#60D029"/>
<path id="Subtract" fill-rule="evenodd" clip-rule="evenodd" d="M9.15985 4.8833C9.23675 4.8833 9.3105 4.91384 9.3649 4.9682C9.41913 5.02258 9.44958 5.09624 9.44958 5.17304C9.44958 5.24983 9.41913 5.3235 9.3649 5.37787L8.55512 6.18765H8.59644H8.59644C9.12919 6.18765 9.55104 6.18765 9.88156 6.2307C10.2216 6.27506 10.4965 6.369 10.7135 6.57949C10.9305 6.79041 11.0271 7.05744 11.0727 7.38796C11.1171 7.70891 11.1171 8.11858 11.1171 8.63611V8.66829C11.1171 9.18582 11.1171 9.59549 11.0727 9.91644C11.0266 10.2465 10.931 10.514 10.7135 10.7249C10.4965 10.9354 10.2216 11.0289 9.88156 11.0733C9.55104 11.1168 9.12919 11.1168 8.59644 11.1168H7.40396C6.87121 11.1168 6.44936 11.1168 6.11884 11.0733C5.77875 11.0293 5.5039 10.9354 5.28688 10.7249C5.06987 10.514 4.97376 10.247 4.92766 9.91644C4.8833 9.59549 4.8833 9.18538 4.8833 8.66786V8.63611C4.8833 8.11858 4.8833 7.70891 4.92766 7.38796C4.97376 7.05787 5.06944 6.79041 5.28688 6.57949C5.5039 6.369 5.77875 6.2755 6.11884 6.23114C6.44893 6.18765 6.87121 6.18765 7.40396 6.18765H7.44527L6.92557 5.66795C6.87478 5.61291 6.84725 5.54036 6.84873 5.46549C6.85022 5.39061 6.8806 5.31921 6.93353 5.26623C6.98646 5.21324 7.05782 5.18278 7.1327 5.18122C7.20757 5.17966 7.28015 5.20711 7.33524 5.25784L8.0002 5.9228L8.95479 4.9682C9.00919 4.91384 9.08294 4.8833 9.15985 4.8833ZM8.89798 9.08615C9.16067 8.89216 9.16067 8.49931 8.89798 8.30532L7.93883 7.59703C7.61845 7.36044 7.1652 7.58917 7.1652 7.98745V9.40403C7.1652 9.8023 7.61845 10.031 7.93883 9.79444L8.89798 9.08615Z" fill="white"/>
<path id="Vector 176" d="M9.55566 2.07941V1L14.2223 4.5H11.9763C10.6394 4.5 9.55566 3.41626 9.55566 2.07941Z" fill="#C6FCC1"/>
</g>
</g>
</g>
</g>
</svg>
