<svg width="48" height="48" viewBox="0 0 48 48" fill="none" xmlns="http://www.w3.org/2000/svg">
<g id="&#229;&#134;&#133;&#233;&#131;&#168;" clip-path="url(#clip0_1048_5523)">
<g id="Group 83450">
<g id="Group 82377">
<path id="Subtract" d="M34.2539 32.6572C34.2537 35.1698 32.2167 37.2068 29.7041 37.207H18.2764C15.7637 37.2069 13.7268 35.1699 13.7266 32.6572V10.7969H17.9482C18.6411 12.5495 21.0854 13.8446 23.9951 13.8447C26.905 13.8447 29.3501 12.5496 30.043 10.7969H34.2539V32.6572Z" fill="#6E7AFF" fill-opacity="0.3"/>
<path id="Union" d="M17.893 10.7969C18.169 10.7969 18.3903 11.0212 18.4161 11.296C18.6766 14.0777 21.0734 16.2568 23.9912 16.2568C26.9091 16.2568 29.3058 14.0777 29.5664 11.296C29.5921 11.0212 29.8134 10.7969 30.0894 10.7969H34.9424C35.2185 10.7969 35.4424 11.0207 35.4424 11.2969V32.6572C35.4422 35.17 33.4054 37.207 30.8926 37.207H17.0967C14.5841 37.2068 12.5471 35.1698 12.5469 32.6572V11.2969C12.5469 11.0207 12.7707 10.7969 13.0469 10.7969H17.893Z" fill="#6E7AFF"/>
</g>
<rect id="Rectangle 1452" x="9.42969" y="10.7969" width="7.285" height="13.205" rx="3.6425" fill="#6E7AFF"/>
<rect id="Rectangle 1453" x="31.2812" y="10.7969" width="7.285" height="13.205" rx="3.6425" fill="#6E7AFF"/>
</g>
</g>
<defs>
<clipPath id="clip0_1048_5523">
<rect width="48" height="48" fill="white"/>
</clipPath>
</defs>
</svg>
