<svg xmlns="http://www.w3.org/2000/svg" preserveAspectRatio="none" viewBox="0 0 6 19" width="8"
     height="20">
    <!-- 音符尾 -->
    <path d="
    M5.8,10.3C5.7,8.7,5.2,7.3,4.1,6c-0.7-1-1.7-2-3-3c-0.5-0.5-0.8-1-1-1.5L-0.1,0h-0.6v10h0.5V9.6c1.3,0.4,2.5,1.2,3.3,2
	c0.5,0.5,0.8,1.1,1.1,1.6C5,15.1,4.5,17.1,4,18.6c0,0.1,0.1,0.1,0.1,0.1c0.2-0.3,0.4-0.4,0.6-0.9c0.2-0.4,0.4-0.9,0.5-1.4
	c0.2-0.7,0.3-1.4,0.2-2.1l0,0c0-0.4-0.1-0.8-0.2-1.3C5.7,12.3,5.8,11.1,5.8,10.3z M4.1,10.9L3,9.6L2,8.3L1.4,7.5
	c-0.5-0.7-0.9-1-1.2-1.7c0,0-0.1-0.3-0.1-0.4c0,0-0.1-0.7-0.1-1l0,0c1.5,0.8,2.8,1.8,3.8,2.9c0.9,0.9,1.3,1.9,1.6,3
	c0,0.1,0,0.2,0,0.3L5,12.5C4.8,11.9,4.5,11.4,4.1,10.9z
  " fill="black"/>
</svg>
