<svg xmlns="http://www.w3.org/2000/svg" viewBox="0 0 18.3 11.7" width="100" height="100">
    <path fill="red" id="whole" d="M5.7,5C5.9,6.6,6.3,8,7.2,9.1c0.8,1,1.8,1.4,3,1.3c1.7-0.1,2.5-1.2,2.3-3.5c-0.1-1.8-0.6-3.1-1.5-4.1
	c-0.8-1-1.8-1.4-3-1.3C7.2,1.6,6.6,1.9,6.1,2.4C5.8,2.9,5.6,3.8,5.7,5z M14.4,1.7c2,0.8,3.2,2.2,3.4,4.2c-0.1,2-1.2,3.4-3.2,4.2
	c-1.9,0.8-3.7,1.1-5.4,1.1c-1.7,0.1-3.5-0.3-5.5-1.1c-2-0.8-3.1-2.2-3.3-4.2c0.1-2,1.2-3.4,3.1-4.2c2-0.8,3.8-1.1,5.4-1.1
	C10.6,0.6,12.4,0.9,14.4,1.7z"/>
</svg>
