<svg xmlns="http://www.w3.org/2000/svg" preserveAspectRatio="none" viewBox="0 -9.8 6.5 29" width="80"
     height="300">
    <!-- 音符尾 -->
    <path d="
    M5.7,14.3c0.1-0.4,0.2-0.7,0.3-1.1c0-0.2,0-0.4,0-0.5c0-0.5-0.1-1-0.2-1.6c-0.1-0.4-0.1-0.9,0-1.3C5.9,9.4,5.9,9,5.9,8.6
	c0-0.5-0.1-1.1-0.1-1.7c0-0.3,0-0.6,0-0.9l0.1-0.9c0-0.2,0-0.4,0-0.6c0-0.5-0.1-0.9-0.1-1.5c0-0.3,0-0.6,0-0.9l0.1-1
	c0-0.2,0-0.4,0-0.5c0-0.7-0.1-1.5-0.4-2.4C5.2-2.8,4.7-3.7,4-4.6C3.4-5.5,2.4-6.4,1.3-7.4c-0.5-0.5-0.8-1-1-1.4l-0.5-1h-0.5v21.1
	h0.4v-0.6l2.7,1.7c0.8,0.5,1.4,1,1.9,1.5c0.2,0.2,0.3,0.3,0.5,0.5c0.1,0.2,0.2,0.3,0.3,0.4c0.2,0.4,0.3,0.8,0.4,1.3
	c0,0,0.4,1.2,0,2.2l-0.2,0.4c0,0.1,0.1,0,0.1,0c0.3-0.5,0.4-0.4,0.6-1.2c0.1-0.4,0.1-0.8,0.1-1.2C6.3,15.6,6.1,14.9,5.7,14.3z
	 M-0.1-6C1-5.4,2-4.8,2.8-4.1c0.8,0.6,1.5,1.5,2,2.7l0.3,1.1c0,0.1,0.1,0.3,0.1,0.4L5.4,1v0.7C5.1,0.9,4.7,0.1,4.1-0.7
	C3.4-1.5,2.4-2.5,1.3-3.5c-0.5-0.5-0.8-1-1-1.4l-0.4-1V-6z M2.8-0.2c0.8,0.6,1.5,1.5,2,2.7l0.3,1.1c0,0.2,0.1,0.3,0.1,0.5l0.2,1v0.6
	C5.1,4.7,4.7,3.9,4.1,3.2C3.4,2.3,2.4,1.3,1.3,0.4c-0.5-0.5-0.9-1-1-1.5l-0.4-1C1-1.5,2-0.9,2.8-0.2z M-0.1,1.7C1,2.3,2,3,2.8,3.7
	c0.8,0.6,1.5,1.5,2,2.7l0.3,1.1c0,0.1,0.1,0.3,0.1,0.4l0.2,0.9v0.7C5.1,8.7,4.7,7.9,4.1,7.1C3.4,6.2,2.4,5.3,1.3,4.3
	c-0.5-0.5-0.8-1-1-1.4l-0.4-1.1V1.7z M4.6,12.6l-1-1.1l-1.4-1.4C1.7,9.6,1.2,9,0.8,8.2C0.3,7.4,0.1,6.6,0,5.7c1.1,0.6,2,1.2,2.8,1.8
	c0.7,0.6,1.4,1.4,1.9,2.4c0.1,0.2,0.2,0.4,0.2,0.6l0.3,1l0.1,0.4l0.1,0.8v1.1l-0.7-1L4.6,12.6z
  " fill="black"/>
</svg>
