<svg xmlns="http://www.w3.org/2000/svg" preserveAspectRatio="none" viewBox="-0.7 -19 15 37" width="50"
     height="140">
    <path stroke="black"
          d="M12.9-17.6L3.5,16.8H2.6l2.2-8.2C4.1,9.1,3.2,9.4,2.3,9.5c-0.6,0-1.1-0.2-1.6-0.6S0,8.1,0,7.5c0.1-1.1,0.7-1.7,1.8-1.9c1,0.1,1.5,0.7,1.6,1.7L3.2,8.3c0.1,0.1,0.2,0.2,0.3,0.2c0.3,0,0.6-0.1,0.9-0.4l0.8-0.7l1.2-4.7C5.6,3.1,4.8,3.4,3.9,3.5c-0.6,0-1.1-0.2-1.6-0.6C1.9,2.6,1.6,2.1,1.6,1.6c0-1.1,0.6-1.7,1.8-1.8c0.5,0,0.9,0.2,1.2,0.6C4.8,0.7,5,1.1,4.9,1.5L4.8,2.3c0.1,0.1,0.2,0.2,0.3,0.1c0.3,0,0.6-0.1,0.9-0.4l0.8-0.8l1.4-4.6C7.3-2.8,6.5-2.5,5.6-2.5C5-2.5,4.4-2.7,4-3C3.5-3.4,3.3-3.9,3.3-4.4c0-1,0.5-1.6,1.5-1.8c0.5-0.1,0.9,0.1,1.3,0.4c0.4,0.3,0.6,0.8,0.6,1.3L6.5-4L6.4-3.7c0.1,0.3,0.3,0.3,0.6,0.2c0.5-0.2,1-0.5,1.5-1.1l1.3-4.7C9-8.8,8.2-8.5,7.2-8.5C6.6-8.5,6.1-8.7,5.7-9C5.2-9.4,5-9.9,5-10.4c0-1,0.5-1.6,1.5-1.8c0.5-0.1,1,0.1,1.3,0.4c0.4,0.3,0.5,0.8,0.6,1.3L8.2-10L8.1-9.7c0.1,0.3,0.3,0.3,0.6,0.2c0.6-0.2,1.1-0.6,1.5-1.1l1.2-4.7c-0.8,0.5-1.7,0.8-2.6,0.9c-0.6,0-1.1-0.2-1.6-0.6c-0.5-0.4-0.7-0.8-0.7-1.4c0-1,0.5-1.6,1.5-1.8c0.5-0.1,1,0.1,1.3,0.4c0.4,0.3,0.5,0.7,0.6,1.3L9.8-16l-0.1,0.3c0.1,0.3,0.3,0.3,0.6,0.2c0.9-0.4,1.6-1.1,2.1-2H12.9"></path>
</svg>
