<svg xmlns="http://www.w3.org/2000/svg" preserveAspectRatio="none" viewBox="-0.7 -19 16 42" width="50"
     height="140">
    <path stroke="red" fill="red"
          d="M14.4-17.7L5,16.7l0,0l-1.6,5.7H2.5l1.6-5.7l0,0l0.7-2.5C4,14.7,3.2,15,2.3,15.1c-0.6,0-1.1-0.2-1.6-0.6C0.3,14.2,0,13.7,0,13.1c0-1,0.5-1.6,1.5-1.8c0.5-0.1,0.9,0,1.3,0.4C3.1,12,3.3,12.4,3.3,13l-0.1,0.6l-0.1,0.3c0.1,0.3,0.3,0.3,0.6,0.2l1.4-1l1.2-4.5C5.5,9.1,4.7,9.4,3.7,9.5c-0.6,0-1.1-0.2-1.6-0.6C1.8,8.5,1.6,8,1.5,7.4c0.1-1.1,0.7-1.7,1.8-1.9c1,0.1,1.5,0.7,1.6,1.7L4.7,8.1C4.8,8.2,4.9,8.3,5,8.2c0.3,0,0.6-0.1,0.9-0.4l0.8-0.7l1.2-4.7C7.2,3,6.3,3.3,5.4,3.4c-0.6,0-1.1-0.2-1.6-0.6C3.4,2.5,3.2,2,3.2,1.5c0-1.1,0.6-1.7,1.8-1.8c0.5,0,0.9,0.2,1.2,0.6C6.4,0.6,6.5,1,6.5,1.4L6.3,2.2c0.1,0.1,0.2,0.2,0.3,0.2c0.3,0,0.6-0.1,0.9-0.4l0.8-0.8l1.4-4.6C8.9-2.9,8-2.6,7.1-2.6C6.5-2.6,6-2.8,5.5-3.1C5.1-3.5,4.8-4,4.8-4.5c0-1,0.5-1.6,1.5-1.8c0.5-0.1,0.9,0,1.3,0.3C8-5.6,8.2-5.2,8.2-4.7L8.1-4.1L8-3.8c0.1,0.3,0.3,0.3,0.6,0.2c0.5-0.2,1-0.5,1.5-1.1l1.3-4.7c-0.8,0.5-1.7,0.8-2.6,0.9c-0.6,0-1.1-0.2-1.6-0.6C6.8-9.5,6.5-10,6.5-10.5c0-1,0.5-1.6,1.5-1.8c0.5-0.1,1,0.1,1.3,0.4c0.4,0.3,0.5,0.8,0.6,1.3l-0.1,0.5L9.7-9.8c0.1,0.3,0.3,0.3,0.6,0.2c0.6-0.2,1.1-0.6,1.5-1.1l1.2-4.7c-0.8,0.5-1.7,0.8-2.6,0.9c-0.6,0-1.1-0.2-1.6-0.6c-0.5-0.4-0.7-0.8-0.7-1.4c0-1,0.5-1.6,1.5-1.8c0.5-0.1,1,0.1,1.3,0.4c0.4,0.3,0.5,0.7,0.6,1.3L11.4-16l-0.1,0.3c0.1,0.3,0.3,0.3,0.6,0.2c0.9-0.4,1.6-1.1,2.1-2h0.4"></path>
</svg>
