<svg width="40" height="40" viewBox="0 0 40 40" fill="none" xmlns="http://www.w3.org/2000/svg">
<g id="Frame 82576">
<g id="Group 82351">
<path id="Vector 271" d="M10 10.0002L10 8C10 4.68629 12.6863 2 16 2L32 2C35.3137 2 38 4.68629 38 8L38 24C38 27.3137 35.3137 30 32 30L30 30" stroke="#9C9DA0" stroke-opacity="0.5" stroke-width="3" stroke-linecap="round" stroke-linejoin="round"/>
<g id="Group 82362">
<path id="Vector 270" d="M24 38L8 38C4.68629 38 2 35.3137 2 32L2 16C2 12.6863 4.68629 10 8 10L24 10C27.3137 10 30 12.6863 30 16L30 32C30 35.3137 27.3137 38 24 38Z" stroke="#9C9DA0" stroke-width="3" stroke-linecap="round" stroke-linejoin="round"/>
</g>
</g>
</g>
</svg>
