<svg width="100%" height="100%" viewBox="0 0 14 14" fill="none" xmlns="http://www.w3.org/2000/svg">
<g id="Frame 82383">
<path id="Shape&#229;&#164;&#135;&#228;&#187;&#189;" d="M12.4532 6.78801C11.9763 6.53332 11.4384 6.76035 11.2322 7.10319L10.4785 8.31709C10.2507 8.57562 9.97736 8.85784 9.69867 8.64658L9.65253 8.60913C9.49682 8.44863 9.56026 7.97248 9.60063 7.66217L10.2177 3.15211C10.2579 2.73186 9.92624 2.3598 9.47376 2.3175C9.03949 2.30852 8.65953 2.58692 8.56834 2.98091L7.87053 6.51192C7.87053 6.59752 7.75519 6.61357 7.74366 6.51192L7.50144 1.9109C7.50144 1.46769 7.11415 1.1084 6.63639 1.1084C6.15864 1.1084 5.77134 1.46769 5.77134 1.9109V6.53332C5.77134 6.58147 5.72521 6.60287 5.71944 6.53332L4.9582 3.00231C4.90109 2.57015 4.47859 2.26185 4.01241 2.31215H3.98357C3.55111 2.37544 3.24879 2.7431 3.2973 3.14676L3.98357 7.33047C3.98357 7.40537 3.98357 7.44817 3.9086 7.33047L2.87631 5.09416C2.72097 4.68858 2.26028 4.45756 1.80942 4.55916C1.56386 4.59274 1.34798 4.72783 1.22243 4.92646C1.09688 5.12509 1.07521 5.36582 1.16351 5.58102L3.02049 10.6047V10.6903C3.5986 12.0624 5.04951 12.9447 6.63639 12.8891C7.71412 12.8854 8.76547 12.5796 9.65253 12.0117C11.0068 11.036 11.4972 9.87397 12.4532 8.49273C12.6566 8.17267 12.7883 7.89357 12.8674 7.63136C12.9465 7.36915 12.8142 6.98569 12.5478 6.83927L12.4532 6.78801Z" stroke="currentColor" stroke-width="1.3"/>
</g>
</svg>
