<svg width="100%" height="100%" viewBox="0 0 23 22" fill="none" xmlns="http://www.w3.org/2000/svg">
<g id="Frame 22406" clip-path="url(#clip0_599_8853)">
<path id="Rectangle 926" d="M20.5947 16.0526V5.94738C20.5947 3.71499 18.785 1.90527 16.5526 1.90527H15.5H12.5H11.5H9.22633H6.95264H6.44738C4.21498 1.90527 2.40527 3.71499 2.40527 5.94738V16.0526C2.40527 18.285 4.21499 20.0947 6.44738 20.0947H16.5526C18.785 20.0947 20.5947 18.285 20.5947 16.0526Z" fill="currentColor" stroke="currentColor" stroke-width="1.5" stroke-linecap="round"/>
<g id="Group 82114">
<path id="Vector 8" d="M8.33154 15.4258L14.6677 15.4258" stroke="white" stroke-width="1.5" stroke-linecap="round" stroke-linejoin="round"/>
<path id="Line 1" d="M8.75303 12.047L9.33003 10.8405M14.5371 12.047L13.9601 10.8405M9.33003 10.8405L9.54177 10.3978L11.3759 6.56274C11.4841 6.33659 11.806 6.33659 11.9142 6.56274L13.7484 10.3978L13.9601 10.8405M9.33003 10.8405L13.9601 10.8405" stroke="white" stroke-width="1.5" stroke-linecap="round" stroke-linejoin="round"/>
</g>
</g>
<defs>
<clipPath id="clip0_599_8853">
<rect width="100%" height="100%" fill="currentColor" transform="translate(0.5)"/>
</clipPath>
</defs>
</svg>
