<svg width="100%" height="100%" viewBox="0 0 16 17" fill="none" xmlns="http://www.w3.org/2000/svg">
<g id="Group 82132">
<g id="Group 81745">
<path id="Rectangle 943" d="M1.77832 3.42023C1.77832 2.08337 2.86206 0.999634 4.19891 0.999634H8.00054H9.5561L14.2228 4.49963V7.99964V12.579C14.2228 13.9159 13.139 14.9996 11.8022 14.9996H4.19891C2.86205 14.9996 1.77832 13.9159 1.77832 12.579V3.42023Z" fill="#FF8C3A"/>
<path id="Vector" d="M8.39691 5.45153C9.97025 5.64266 10.908 6.94819 10.7337 8.38343C10.6208 9.31209 10.0289 10.0647 8.99206 10.6302L8.95709 10.6521C8.9236 10.6764 8.89504 10.7066 8.87289 10.7412L8.85303 10.7772C8.46015 11.6089 7.8021 11.9993 6.94096 11.8947C6.00551 11.7811 5.44868 11.161 5.31496 10.1226C5.24784 9.20652 5.82835 9.27704 5.88779 8.78776C5.94723 8.29847 5.36672 8.22795 5.42616 7.73867C5.5828 6.44924 6.60231 5.23352 8.39691 5.45153ZM8.2186 6.91938C7.86669 6.87663 7.51249 6.9731 7.23393 7.18756C6.95537 7.40202 6.77526 7.71691 6.73322 8.06295L6.7333 8.0623C6.72343 8.14229 6.7438 8.22318 6.79053 8.28958C6.83727 8.35598 6.90711 8.40326 6.98678 8.42244L7.02531 8.42944C7.11328 8.44014 7.19346 8.48476 7.24823 8.55349C7.303 8.62221 7.32786 8.70942 7.31735 8.79592C7.30684 8.88242 7.26183 8.96114 7.1922 9.01475C7.12257 9.06837 7.03403 9.09249 6.94606 9.08182C6.85809 9.07115 6.76955 9.09527 6.69992 9.14888C6.63029 9.2025 6.58527 9.28122 6.57477 9.36772C6.56426 9.45422 6.58912 9.54142 6.64389 9.61015C6.69866 9.67888 6.77884 9.7235 6.86681 9.7342C7.09698 9.76239 7.32964 9.71124 7.52517 9.58947C7.7207 9.4677 7.867 9.28283 7.93915 9.06636C8.01129 8.84989 8.00483 8.61521 7.92085 8.40229C7.83687 8.18936 7.68057 8.01137 7.47858 7.89863C7.55461 7.76681 7.67479 7.66514 7.81869 7.61088C7.96259 7.55661 8.12134 7.5531 8.268 7.60094C8.41465 7.64878 8.54015 7.74502 8.62319 7.87331C8.70623 8.0016 8.74168 8.15404 8.72353 8.30474C8.71302 8.39125 8.73789 8.47846 8.79267 8.54719C8.84745 8.61592 8.92764 8.66054 9.01562 8.67122C9.1036 8.68191 9.19215 8.65779 9.26179 8.60418C9.33143 8.55056 9.37646 8.47184 9.38697 8.38533C9.429 8.03929 9.32952 7.69043 9.11041 7.41552C8.8913 7.1406 8.5705 6.96213 8.2186 6.91938Z" fill="white"/>
<path id="Vector 176" d="M9.55566 2.07904V0.999634L14.2223 4.49963H11.9763C10.6394 4.49963 9.55566 3.4159 9.55566 2.07904Z" fill="#F8D9AA"/>
</g>
</g>
</svg>
