<svg width="100%" height="100%" viewBox="0 0 20 20" fill="none" xmlns="http://www.w3.org/2000/svg">
<g id="Frame 82314">
<g id="Group 146">
<path id="Rectangle 256" d="M15.9842 9.06926V12.8993C15.9842 14.5561 14.6411 15.8993 12.9842 15.8993H5.32422C3.66736 15.8993 2.32422 14.5561 2.32422 12.8993V5.23926C2.32422 3.5824 3.66736 2.23926 5.32422 2.23926H9.15422" stroke="currentColor" stroke-width="1.3" stroke-linecap="round"/>
<g id="Group 145">
<path id="Rectangle 257" d="M13.5903 2.83988C13.9665 2.46367 14.5765 2.46367 14.9527 2.83988L15.7328 3.61996C16.109 3.99617 16.109 4.60613 15.7328 4.98235L9.86331 10.8518C9.768 10.9471 9.65375 11.0214 9.52794 11.0697L8.26031 11.5573C7.48121 11.8569 6.71569 11.0914 7.01535 10.3123L7.5029 9.0447C7.55128 8.91889 7.62553 8.80464 7.72085 8.70933L13.5903 2.83988Z"  stroke="currentColor" stroke-width="1.3"/>
</g>
</g>
</g>
</svg>
