<svg width="100%" height="100%" viewBox="0 0 48 48" fill="none" xmlns="http://www.w3.org/2000/svg">
<g id="&#229;&#134;&#133;&#233;&#131;&#168;" clip-path="url(#clip0_131_2139)">
<g id="Group 82455">
<path id="Star 3" d="M14.029 6.82455C13.567 5.56694 11.7883 5.56694 11.3262 6.82456L10.4504 9.20823C10.0132 10.398 9.0755 11.3357 7.88573 11.7729L5.50206 12.6487C4.24444 13.1108 4.24444 14.8895 5.50206 15.3515L7.88573 16.2274C9.0755 16.6645 10.0132 17.6022 10.4504 18.792L11.3262 21.1757C11.7883 22.4333 13.567 22.4333 14.029 21.1757L14.9049 18.792C15.342 17.6022 16.2797 16.6645 17.4695 16.2274L19.8532 15.3515C21.1108 14.8895 21.1108 13.1108 19.8532 12.6487L17.4695 11.7729C16.2797 11.3357 15.342 10.398 14.9049 9.20823L14.029 6.82455Z" fill="#FFD147"/>
<g id="Group 82379">
<circle id="Ellipse 102" cx="32.6934" cy="23.3677" r="10.2928" transform="rotate(45 32.6934 23.3677)" fill="#FFA51F"/>
<path id="Rectangle 425" d="M23.6026 24.0893C25.9136 21.7783 29.6606 21.7783 31.9716 24.0893C34.2826 26.4003 34.2826 30.1473 31.9716 32.4583L23.4273 41.0026C21.1163 43.3137 17.3693 43.3137 15.0583 41.0026C12.7472 38.6916 12.7472 34.9446 15.0583 32.6336L23.6026 24.0893Z" fill="#FFA51F" fill-opacity="0.3"/>
<path id="Rectangle 425_2" d="M23.6026 24.0893C25.9136 21.7783 29.6606 21.7783 31.9716 24.0893C34.2826 26.4003 34.2826 30.1473 31.9716 32.4583L25.2774 39.1525C22.9664 41.4635 19.2195 41.4635 16.9084 39.1525C14.5974 36.8414 14.5974 33.0945 16.9084 30.7835L23.6026 24.0893Z" fill="#FFA51F"/>
<path id="Vector 44" d="M29.0039 22.8135C29.2705 25.618 30.7149 27.1738 33.8542 27.6638" stroke="white" stroke-width="4" stroke-linecap="round"/>
</g>
</g>
</g>
<defs>
<clipPath id="clip0_131_2139">
<rect width="100%" height="100%" fill="white"/>
</clipPath>
</defs>
</svg>
