<svg width="100%" height="100%" viewBox="0 0 24 24" fill="none" xmlns="http://www.w3.org/2000/svg">
<g id="Frame 82362">
<g id="Frame 82084">
<g id="Group 82039">
<path id="Rectangle 1003" d="M20.5348 9.65169V7.94604V6.22119C20.5348 4.28819 18.9678 2.72119 17.0348 2.72119H6.58008C4.64708 2.72119 3.08008 4.28819 3.08008 6.22119V17.7091C3.08008 19.6421 4.64708 21.2091 6.58007 21.2091H10.8679" stroke="currentColor" stroke-width="1.5" stroke-linecap="round"/>
<path id="Vector 207" d="M6.83984 6.70654H14.8118" stroke="currentColor" stroke-width="1.5" stroke-linecap="round"/>
<path id="Vector 208" d="M6.83984 11.2603H11.3259" stroke="currentColor" stroke-width="1.5" stroke-linecap="round"/>
<g id="Group 82066">
<path id="Vector" d="M19.5858 19.9447C18.7614 20.7691 17.6224 21.2791 16.3644 21.2791C13.8483 21.2791 11.8086 19.2394 11.8086 16.7233C11.8086 14.2072 13.8483 12.1675 16.3644 12.1675C17.6224 12.1675 18.7614 12.6774 19.5858 13.5018C20.0054 13.9215 20.9202 14.9516 20.9202 14.9516" stroke="currentColor" stroke-width="1.5" stroke-linecap="round" stroke-linejoin="round"/>
<path id="Vector_2" d="M20.9205 12.6738V14.9517H18.6426" stroke="currentColor" stroke-width="1.5" stroke-linecap="round" stroke-linejoin="round"/>
</g>
</g>
</g>
</g>
</svg>
