<svg width="100%" height="100%" viewBox="0 0 48 48" fill="none" xmlns="http://www.w3.org/2000/svg">
<g id="&#229;&#134;&#133;&#233;&#131;&#168;" clip-path="url(#clip0_131_1889)">
<g id="Group 82378">
<path id="Shape" d="M28.3662 38.2033L32.9483 29.0832C33.441 28.1025 32.9635 27.1269 31.8882 26.9122L21.967 24.9311C20.8918 24.7164 20.4965 25.66 20.9283 26.5462L22.3743 29.514L21.2779 30.0482C18.1139 31.5899 15.0668 31.4691 12.3673 29.6892C11.8549 29.3761 11.6006 29.6242 11.7733 29.9787C14.0087 34.4053 20.4321 37.4802 25.0063 35.2515L25.1385 35.1871L26.5096 38.001C27.0246 39.0535 27.8744 39.1815 28.3662 38.2033Z" fill="currentColor"/>
<path id="Shape_2" d="M19.5828 9.88501L15.0806 19.0448C14.5964 20.0298 15.0825 21.0012 16.1595 21.2065L26.0977 23.1007C27.1748 23.306 27.5618 22.359 27.1223 21.4766L25.6503 18.5216L26.742 17.9778C29.8925 16.4085 32.9405 16.5027 35.6554 18.2589C36.1706 18.5675 36.4227 18.3172 36.2469 17.9643C33.9729 13.5574 27.5229 10.5387 22.9683 12.8073L22.8367 12.8729L21.4411 10.071C20.9169 9.02308 20.066 8.90251 19.5828 9.88501Z" fill="currentColor"/>
</g>
</g>
<defs>
<clipPath id="clip0_131_1889">
<rect width="100%" height="100%" fill="currentColor"/>
</clipPath>
</defs>
</svg>
