<svg width="100%" height="100%" viewBox="0 0 18 18" fill="none" xmlns="http://www.w3.org/2000/svg">
<g id="Frame 82365">
<g id="Frame 82084">
<g id="Group 82039">
<g id="Group 82045">
<g id="Group 82046">
<path id="Vector" d="M14.8895 4.16895C14.9569 4.24006 15.0208 4.3133 15.0811 4.38845C16.1687 5.74354 16.1048 7.71766 14.8895 9.00007" stroke="currentColor" stroke-width="1.3" stroke-linecap="round" stroke-linejoin="round"/>
<path id="Vector_2" d="M13.335 7.90202C14.0628 7.17427 14.0628 5.99435 13.335 5.2666" stroke="currentColor" stroke-width="1.3" stroke-linecap="round" stroke-linejoin="round"/>
<path id="Vector_3" fill-rule="evenodd" clip-rule="evenodd" d="M11.0262 6.58457C11.0262 6.94355 11.3172 7.23457 11.6762 7.23457C12.0352 7.23457 12.3262 6.94355 12.3262 6.58457C12.3262 6.22559 12.0352 5.93457 11.6762 5.93457C11.3172 5.93457 11.0262 6.22559 11.0262 6.58457Z" fill="currentColor"/>
</g>
<circle id="Ellipse 193" cx="6.15625" cy="5.20703" r="3.12109" stroke="currentColor" stroke-width="1.3" stroke-linecap="round"/>
<path id="Ellipse 194" d="M14.1621 15.9146C14.1621 12.5971 11.4728 9.90771 8.15527 9.90771C4.83779 9.90771 2.14844 12.5971 2.14844 15.9146" stroke="currentColor" stroke-width="1.3" stroke-linecap="round"/>
</g>
</g>
</g>
</g>
</svg>
