<svg width="100%" height="100%" viewBox="0 0 16 17" fill="none" xmlns="http://www.w3.org/2000/svg">
<g id="Group 82132">
<g id="Group 81745">
<path id="Rectangle 943" d="M1.77783 3.92059C1.77783 2.58374 2.86157 1.5 4.19842 1.5H8.00005H9.55561L14.2223 5V8.5V13.0794C14.2223 14.4163 13.1385 15.5 11.8017 15.5H4.19842C2.86157 15.5 1.77783 14.4163 1.77783 13.0794V3.92059Z" fill="#2579FF"/>
<g id="Group 82171">
<path id="Rectangle 944" d="M9.35577 6.0567C9.59669 6.12125 9.73966 6.36889 9.67511 6.60981L8.38936 11.4083C8.3248 11.6492 8.07717 11.7922 7.83625 11.7276C7.59533 11.6631 7.45236 11.4154 7.51691 11.1745L8.80266 6.37604C8.86721 6.13512 9.11485 5.99214 9.35577 6.0567Z" fill="white"/>
<path id="Rectangle 945" d="M9.04255 6.20499C9.25097 6.06798 9.53099 6.12586 9.66801 6.33428L10.6576 7.83952C10.7946 8.04793 10.7367 8.32796 10.5283 8.46497C10.3198 8.60198 10.0398 8.5441 9.90281 8.33569L8.91326 6.83045C8.77625 6.62203 8.83414 6.34201 9.04255 6.20499Z" fill="white"/>
<ellipse id="Ellipse 222" cx="6.69916" cy="10.9553" rx="1.75" ry="1.46774" transform="rotate(15 6.69916 10.9553)" fill="white"/>
</g>
<path id="Vector 176" d="M9.55518 2.57941V1.5L14.2218 5H11.9758C10.6389 5 9.55518 3.91626 9.55518 2.57941Z" fill="#D1E3FF"/>
</g>
</g>
</svg>
